G04 ================== begin FILE IDENTIFICATION RECORD ==================*
G04 Layout Name:  C:/Users/Jimmy-X/Desktop/short_term/designer/pcb.brd*
G04 Film Name:    DRILL*
G04 File Format:  Gerber RS274X*
G04 File Origin:  Cadence Allegro 17.2-P019*
G04 Origin Date:  Tue Jul 20 20:56:42 2021*
G04 *
G04 Layer:  MANUFACTURING/NCDRILL_LEGEND*
G04 Layer:  MANUFACTURING/NCDRILL_FIGURE*
G04 Layer:  BOARD GEOMETRY/OUTLINE*
G04 Layer:  MANUFACTURING/NCLEGEND-1-2*
G04 *
G04 Offset:    (0.00 0.00)*
G04 Mirror:    No*
G04 Mode:      Positive*
G04 Rotation:  0*
G04 FullContactRelief:  No*
G04 UndefLineWidth:     10.00*
G04 ================== end FILE IDENTIFICATION RECORD ====================*
%FSLAX25Y25*MOIN*%
%IR0*IPPOS*OFA0.00000B0.00000*MIA0B0*SFA1.00000B1.00000*%
%AMMACRO11*
1,1,.01,.025,0.0*
20,1,.01,.025,0.0,.02462,-.004341,0.0*
1,1,.01,.02462,-.004341*
20,1,.01,.02462,-.004341,.023492,-.008551,0.0*
1,1,.01,.023492,-.008551*
20,1,.01,.023492,-.008551,.021651,-.0125,0.0*
1,1,.01,.021651,-.0125*
20,1,.01,.021651,-.0125,.019151,-.01607,0.0*
1,1,.01,.019151,-.01607*
20,1,.01,.019151,-.01607,.01607,-.019151,0.0*
1,1,.01,.01607,-.019151*
20,1,.01,.01607,-.019151,.0125,-.021651,0.0*
1,1,.01,.0125,-.021651*
20,1,.01,.0125,-.021651,.008551,-.023492,0.0*
1,1,.01,.008551,-.023492*
20,1,.01,.008551,-.023492,.004341,-.02462,0.0*
1,1,.01,.004341,-.02462*
20,1,.01,.004341,-.02462,0.0,-.025,0.0*
1,1,.01,0.0,-.025*
20,1,.01,0.0,-.025,-.004341,-.02462,0.0*
1,1,.01,-.004341,-.02462*
20,1,.01,-.004341,-.02462,-.008551,-.023492,0.0*
1,1,.01,-.008551,-.023492*
20,1,.01,-.008551,-.023492,-.0125,-.021651,0.0*
1,1,.01,-.0125,-.021651*
20,1,.01,-.0125,-.021651,-.01607,-.019151,0.0*
1,1,.01,-.01607,-.019151*
20,1,.01,-.01607,-.019151,-.019151,-.01607,0.0*
1,1,.01,-.019151,-.01607*
20,1,.01,-.019151,-.01607,-.021651,-.0125,0.0*
1,1,.01,-.021651,-.0125*
20,1,.01,-.021651,-.0125,-.023492,-.008551,0.0*
1,1,.01,-.023492,-.008551*
20,1,.01,-.023492,-.008551,-.02462,-.004341,0.0*
1,1,.01,-.02462,-.004341*
20,1,.01,-.02462,-.004341,-.025,0.0,0.0*
1,1,.01,-.025,0.0*
20,1,.01,-.025,0.0,-.02462,.004341,0.0*
1,1,.01,-.02462,.004341*
20,1,.01,-.02462,.004341,-.023492,.008551,0.0*
1,1,.01,-.023492,.008551*
20,1,.01,-.023492,.008551,-.021651,.0125,0.0*
1,1,.01,-.021651,.0125*
20,1,.01,-.021651,.0125,-.019151,.01607,0.0*
1,1,.01,-.019151,.01607*
20,1,.01,-.019151,.01607,-.01607,.019151,0.0*
1,1,.01,-.01607,.019151*
20,1,.01,-.01607,.019151,-.0125,.021651,0.0*
1,1,.01,-.0125,.021651*
20,1,.01,-.0125,.021651,-.008551,.023492,0.0*
1,1,.01,-.008551,.023492*
20,1,.01,-.008551,.023492,-.004341,.02462,0.0*
1,1,.01,-.004341,.02462*
20,1,.01,-.004341,.02462,0.0,.025,0.0*
1,1,.01,0.0,.025*
20,1,.01,0.0,.025,.004341,.02462,0.0*
1,1,.01,.004341,.02462*
20,1,.01,.004341,.02462,.008551,.023492,0.0*
1,1,.01,.008551,.023492*
20,1,.01,.008551,.023492,.0125,.021651,0.0*
1,1,.01,.0125,.021651*
20,1,.01,.0125,.021651,.01607,.019151,0.0*
1,1,.01,.01607,.019151*
20,1,.01,.01607,.019151,.019151,.01607,0.0*
1,1,.01,.019151,.01607*
20,1,.01,.019151,.01607,.021651,.0125,0.0*
1,1,.01,.021651,.0125*
20,1,.01,.021651,.0125,.023492,.008551,0.0*
1,1,.01,.023492,.008551*
20,1,.01,.023492,.008551,.02462,.004341,0.0*
1,1,.01,.02462,.004341*
20,1,.01,.02462,.004341,.025,0.0,0.0*
1,1,.01,.025,0.0*
1,1,.01,.0125,0.0*
20,1,.01,.0125,0.0,-.0125,0.0,0.0*
1,1,.01,-.0125,0.0*
1,1,.01,0.0,.0125*
20,1,.01,0.0,.0125,0.0,-.0125,0.0*
1,1,.01,0.0,-.0125*
%
%ADD11MACRO11*%
%AMMACRO10*
1,1,.01,.02,0.0*
20,1,.01,.02,0.0,.01,.017321,0.0*
1,1,.01,.01,.017321*
20,1,.01,.01,.017321,-.01,.017321,0.0*
1,1,.01,-.01,.017321*
20,1,.01,-.01,.017321,-.02,0.0,0.0*
1,1,.01,-.02,0.0*
20,1,.01,-.02,0.0,-.01,-.017321,0.0*
1,1,.01,-.01,-.017321*
20,1,.01,-.01,-.017321,.01,-.017321,0.0*
1,1,.01,.01,-.017321*
20,1,.01,.01,-.017321,.02,0.0,0.0*
1,1,.01,.02,0.0*
%
%ADD10MACRO10*%
%ADD12C,.01*%
G75*
%LPD*%
G75*
G54D10*
X749450Y746000D03*
X764500Y892000D03*
Y902000D03*
X779071Y925051D03*
X771197D03*
X763323D03*
X779071Y944736D03*
X771197D03*
X763323D03*
X766000Y1094500D03*
Y1104500D03*
Y1114500D03*
Y1124500D03*
Y1134500D03*
Y1144500D03*
Y1154500D03*
Y1164500D03*
Y1174500D03*
Y1184500D03*
Y1194500D03*
Y1204500D03*
Y1214500D03*
Y1224500D03*
Y1234500D03*
Y1244500D03*
X809500Y978500D03*
Y988500D03*
Y998500D03*
Y1008500D03*
Y1018500D03*
Y1028500D03*
Y1038500D03*
Y1048500D03*
Y1058500D03*
Y1068500D03*
Y1078500D03*
Y1088500D03*
Y1098500D03*
Y1108500D03*
Y1118500D03*
Y1128500D03*
Y1138500D03*
Y1148500D03*
Y1158500D03*
Y1168500D03*
X841000Y894500D03*
X821000D03*
X841000Y914500D03*
X821000D03*
X841500Y942500D03*
X831500D03*
X821500D03*
X869500Y988500D03*
Y978500D03*
Y1018500D03*
Y1008500D03*
Y998500D03*
Y1048500D03*
Y1038500D03*
Y1028500D03*
Y1078500D03*
Y1068500D03*
Y1058500D03*
Y1108500D03*
Y1098500D03*
Y1088500D03*
Y1138500D03*
Y1128500D03*
Y1118500D03*
Y1168500D03*
Y1158500D03*
Y1148500D03*
X854703Y1234437D03*
Y1224594D03*
Y1214751D03*
X881000Y894500D03*
X901000D03*
X881000Y914500D03*
X901000D03*
X902500Y944500D03*
Y974500D03*
X902000Y1002000D03*
Y1042000D03*
X900500Y1070500D03*
Y1094000D03*
Y1139500D03*
Y1122000D03*
Y1157000D03*
X932500Y944500D03*
X922500D03*
X912500D03*
Y974500D03*
X922500D03*
X932500D03*
X929000Y1008500D03*
Y1028500D03*
X930500Y1070500D03*
X920500D03*
X910500D03*
X930500Y1094000D03*
X920500D03*
X910500D03*
X912500Y1186500D03*
X932500D03*
X912500Y1208000D03*
X932500D03*
X931213Y1231500D03*
X912000D03*
X954500Y895500D03*
Y935500D03*
X940500Y1070500D03*
X950500Y1094000D03*
X940500D03*
Y1139500D03*
Y1122000D03*
Y1157000D03*
X990764Y902281D03*
Y912517D03*
X987232Y1006115D03*
Y1031705D03*
X988883Y1066764D03*
X979115Y1127552D03*
X979315Y1168852D03*
X979115Y1145268D03*
X979315Y1186568D03*
X979115Y1227268D03*
Y1209552D03*
X1004948Y1006115D03*
Y1031705D03*
X999119Y1066764D03*
X1004705Y1127552D03*
X1004905Y1168852D03*
X1004705Y1145268D03*
X1004905Y1186568D03*
X1004705Y1227268D03*
Y1209552D03*
X1045106Y943768D03*
X1030700Y1006200D03*
Y1046200D03*
X1038500Y1091500D03*
X1050000Y1126000D03*
X1055106Y943768D03*
X1065106D03*
X1075106D03*
X1078500Y1091500D03*
X1070000Y1126000D03*
X1060000D03*
X1074500Y1186579D03*
Y1216500D03*
X1102020Y1021512D03*
Y1011512D03*
Y1051512D03*
Y1041512D03*
Y1031512D03*
Y1071512D03*
Y1061512D03*
G54D11*
X749450Y771000D03*
X861500Y944500D03*
X856500Y975500D03*
X876500Y942000D03*
X896000Y958500D03*
X889000Y1052500D03*
X915900Y1027100D03*
X913500Y1060500D03*
X934500Y1042500D03*
X932500Y1050000D03*
X996500Y961500D03*
G54D12*
G01X704500Y733500D02*
Y858500D01*
X1200500D01*
Y733500D01*
X704500D01*
G01Y758500D02*
X1200500D01*
G01X715505Y789750D02*
Y802250D01*
X721395D01*
G01X719225Y796208D02*
X715505D01*
G01X728990Y802250D02*
X732710D01*
G01X730850D02*
Y789750D01*
G01X728990D02*
X732710D01*
G01X744180Y796000D02*
X747280D01*
Y792250D01*
X746350Y791000D01*
X745265Y790167D01*
X743715Y789750D01*
X742165Y790167D01*
X741080Y791000D01*
X740150Y792250D01*
X739530Y793708D01*
X739220Y795375D01*
Y796833D01*
X739530Y798083D01*
X740150Y799542D01*
X741080Y800792D01*
X742010Y801625D01*
X743250Y802250D01*
X744335D01*
X745575Y801833D01*
X746505Y801000D01*
G01X752240Y802250D02*
Y793292D01*
X752860Y791416D01*
X754100Y790167D01*
X755650Y789750D01*
X757200Y790167D01*
X758440Y791416D01*
X759060Y793292D01*
Y802250D01*
G01X764950Y789750D02*
Y802250D01*
X768825D01*
X770065Y801625D01*
X770840Y800792D01*
X771150Y799125D01*
X770840Y797458D01*
X769910Y796417D01*
X768825Y795792D01*
X764950D01*
G01X768825D02*
X771150Y789750D01*
G01X783550D02*
X777350D01*
Y802250D01*
X783550D01*
G01X781070Y796208D02*
X777350D01*
G01X704500Y808500D02*
X1200500D01*
G01X704500Y783500D02*
X1200500D01*
G01X704500Y833500D02*
X1200500D01*
G01X740000Y866500D02*
Y1260000D01*
X1133500D01*
Y866500D01*
X740000D01*
G01X794400Y808500D02*
Y733500D01*
G01X794090Y839750D02*
Y852250D01*
X797190D01*
X798430Y851625D01*
X799360Y850792D01*
X800135Y849542D01*
X800755Y848083D01*
X800910Y846000D01*
X800755Y843917D01*
X800135Y842458D01*
X799360Y841208D01*
X798430Y840375D01*
X797190Y839750D01*
X794090D01*
G01X806800D02*
Y852250D01*
X810675D01*
X811915Y851625D01*
X812690Y850792D01*
X813000Y849125D01*
X812690Y847458D01*
X811760Y846417D01*
X810675Y845792D01*
X806800D01*
G01X810675D02*
X813000Y839750D01*
G01X820440Y852250D02*
X824160D01*
G01X822300D02*
Y839750D01*
G01X820440D02*
X824160D01*
G01X831600Y852250D02*
Y839750D01*
X837800D01*
G01X844000Y852250D02*
Y839750D01*
X850200D01*
G01X875310Y851208D02*
X874380Y851833D01*
X873295Y852250D01*
X872055D01*
X870660Y851625D01*
X869575Y850583D01*
X868800Y849333D01*
X868180Y847250D01*
X868025Y845375D01*
X868335Y843500D01*
X868800Y842250D01*
X869730Y841000D01*
X870815Y840167D01*
X871900Y839750D01*
X872985D01*
X874070Y840167D01*
X875000Y840791D01*
X875775Y841625D01*
G01X881045Y839750D02*
Y852250D01*
G01X887555D02*
Y839750D01*
G01Y846000D02*
X881045D01*
G01X892825Y839750D02*
X896700Y852250D01*
X900575Y839750D01*
G01X899180Y844125D02*
X894220D01*
G01X906000Y839750D02*
Y852250D01*
X909875D01*
X911115Y851625D01*
X911890Y850792D01*
X912200Y849125D01*
X911890Y847458D01*
X910960Y846417D01*
X909875Y845792D01*
X906000D01*
G01X909875D02*
X912200Y839750D01*
G01X921500Y852250D02*
Y839750D01*
G01X917935Y852250D02*
X925065D01*
G01X933900Y839333D02*
X933590Y839542D01*
Y839958D01*
X933900Y840167D01*
X934210Y839958D01*
Y839542D01*
X933900Y839333D01*
G01Y844958D02*
X933590Y845167D01*
Y845583D01*
X933900Y845792D01*
X934210Y845583D01*
Y845167D01*
X933900Y844958D01*
G01X958700Y852250D02*
Y839750D01*
G01X955135Y852250D02*
X962265D01*
G01X971100Y839750D02*
X969860Y839958D01*
X968775Y840791D01*
X967845Y842042D01*
X967225Y843500D01*
X966915Y845167D01*
Y846833D01*
X967225Y848500D01*
X967845Y849958D01*
X968775Y851208D01*
X969860Y852042D01*
X971100Y852250D01*
X972340Y852042D01*
X973425Y851208D01*
X974355Y849958D01*
X974975Y848500D01*
X975285Y846833D01*
Y845167D01*
X974975Y843500D01*
X974355Y842042D01*
X973425Y840791D01*
X972340Y839958D01*
X971100Y839750D01*
G01X980400D02*
Y852250D01*
X984120D01*
X985360Y851625D01*
X986290Y850167D01*
X986600Y848500D01*
X986290Y846833D01*
X985515Y845583D01*
X984120Y844958D01*
X980400D01*
G01X1008300Y852250D02*
Y839750D01*
G01X1006130Y848083D02*
X1010470D01*
G01X1020700Y839750D02*
X1019770Y839958D01*
X1018840Y840791D01*
X1018220Y842250D01*
X1017910Y843917D01*
X1018220Y845583D01*
X1018840Y847042D01*
X1019770Y847875D01*
X1020700Y848083D01*
X1021630Y847875D01*
X1022560Y847042D01*
X1023180Y845583D01*
X1023335Y843917D01*
X1023180Y842250D01*
X1022560Y840791D01*
X1021630Y839958D01*
X1020700Y839750D01*
G01X1046740Y846417D02*
X1047360Y847042D01*
X1047825Y848083D01*
X1048135Y849542D01*
X1047825Y850792D01*
X1047205Y851625D01*
X1046120Y852250D01*
X1041935D01*
Y839750D01*
X1047050D01*
X1048135Y840583D01*
X1048755Y841833D01*
X1049065Y843292D01*
X1048755Y844750D01*
X1047825Y846000D01*
X1046740Y846417D01*
X1041935D01*
G01X1057900Y839750D02*
X1056660Y839958D01*
X1055575Y840791D01*
X1054645Y842042D01*
X1054025Y843500D01*
X1053715Y845167D01*
Y846833D01*
X1054025Y848500D01*
X1054645Y849958D01*
X1055575Y851208D01*
X1056660Y852042D01*
X1057900Y852250D01*
X1059140Y852042D01*
X1060225Y851208D01*
X1061155Y849958D01*
X1061775Y848500D01*
X1062085Y846833D01*
Y845167D01*
X1061775Y843500D01*
X1061155Y842042D01*
X1060225Y840791D01*
X1059140Y839958D01*
X1057900Y839750D01*
G01X1070300Y852250D02*
Y839750D01*
G01X1066735Y852250D02*
X1073865D01*
G01X1082700D02*
Y839750D01*
G01X1079135Y852250D02*
X1086265D01*
G01X1095100Y839750D02*
X1093860Y839958D01*
X1092775Y840791D01*
X1091845Y842042D01*
X1091225Y843500D01*
X1090915Y845167D01*
Y846833D01*
X1091225Y848500D01*
X1091845Y849958D01*
X1092775Y851208D01*
X1093860Y852042D01*
X1095100Y852250D01*
X1096340Y852042D01*
X1097425Y851208D01*
X1098355Y849958D01*
X1098975Y848500D01*
X1099285Y846833D01*
Y845167D01*
X1098975Y843500D01*
X1098355Y842042D01*
X1097425Y840791D01*
X1096340Y839958D01*
X1095100Y839750D01*
G01X1103470D02*
Y852250D01*
X1107500Y841833D01*
X1111530Y852250D01*
Y839750D01*
G01X817805Y789750D02*
Y802250D01*
X823695D01*
G01X821525Y796208D02*
X817805D01*
G01X831290Y802250D02*
X835010D01*
G01X833150D02*
Y789750D01*
G01X831290D02*
X835010D01*
G01X841985D02*
Y802250D01*
X849115Y789750D01*
Y802250D01*
G01X856090D02*
X859810D01*
G01X857950D02*
Y789750D01*
G01X856090D02*
X859810D01*
G01X867095Y791416D02*
X868335Y790375D01*
X869730Y789750D01*
X870970D01*
X872210Y790375D01*
X873140Y791416D01*
X873605Y792875D01*
X873295Y794333D01*
X872520Y795583D01*
X871125Y796417D01*
X869265Y796833D01*
X868180Y797667D01*
X867715Y799125D01*
X868025Y800583D01*
X868800Y801625D01*
X869885Y802250D01*
X870970D01*
X872055Y801833D01*
X872985Y800792D01*
G01X879495Y789750D02*
Y802250D01*
G01X886005D02*
Y789750D01*
G01Y796000D02*
X879495D01*
G01X898250Y789750D02*
X892050D01*
Y802250D01*
X898250D01*
G01X895770Y796208D02*
X892050D01*
G01X904140Y789750D02*
Y802250D01*
X907240D01*
X908480Y801625D01*
X909410Y800792D01*
X910185Y799542D01*
X910805Y798083D01*
X910960Y796000D01*
X910805Y793917D01*
X910185Y792458D01*
X909410Y791208D01*
X908480Y790375D01*
X907240Y789750D01*
X904140D01*
G01X915300Y785583D02*
X924600D01*
G01X929095Y791416D02*
X930335Y790375D01*
X931730Y789750D01*
X932970D01*
X934210Y790375D01*
X935140Y791416D01*
X935605Y792875D01*
X935295Y794333D01*
X934520Y795583D01*
X933125Y796417D01*
X931265Y796833D01*
X930180Y797667D01*
X929715Y799125D01*
X930025Y800583D01*
X930800Y801625D01*
X931885Y802250D01*
X932970D01*
X934055Y801833D01*
X934985Y800792D01*
G01X942890Y802250D02*
X946610D01*
G01X944750D02*
Y789750D01*
G01X942890D02*
X946610D01*
G01X954205Y802250D02*
X960095D01*
X954205Y789750D01*
X960095D01*
G01X972650D02*
X966450D01*
Y802250D01*
X972650D01*
G01X970170Y796208D02*
X966450D01*
G01X824625Y814750D02*
X828500Y827250D01*
X832375Y814750D01*
G01X830980Y819125D02*
X826020D01*
G01X837800Y827250D02*
Y814750D01*
X844000D01*
G01X850200Y827250D02*
Y814750D01*
X856400D01*
G01X874690Y827250D02*
Y818292D01*
X875310Y816416D01*
X876550Y815167D01*
X878100Y814750D01*
X879650Y815167D01*
X880890Y816416D01*
X881510Y818292D01*
Y827250D01*
G01X886935Y814750D02*
Y827250D01*
X894065Y814750D01*
Y827250D01*
G01X901040D02*
X904760D01*
G01X902900D02*
Y814750D01*
G01X901040D02*
X904760D01*
G01X915300Y827250D02*
Y814750D01*
G01X911735Y827250D02*
X918865D01*
G01X924445Y816416D02*
X925685Y815375D01*
X927080Y814750D01*
X928320D01*
X929560Y815375D01*
X930490Y816416D01*
X930955Y817875D01*
X930645Y819333D01*
X929870Y820583D01*
X928475Y821417D01*
X926615Y821833D01*
X925530Y822667D01*
X925065Y824125D01*
X925375Y825583D01*
X926150Y826625D01*
X927235Y827250D01*
X928320D01*
X929405Y826833D01*
X930335Y825792D01*
G01X948625Y814750D02*
X952500Y827250D01*
X956375Y814750D01*
G01X954980Y819125D02*
X950020D01*
G01X961800Y814750D02*
Y827250D01*
X965675D01*
X966915Y826625D01*
X967690Y825792D01*
X968000Y824125D01*
X967690Y822458D01*
X966760Y821417D01*
X965675Y820792D01*
X961800D01*
G01X965675D02*
X968000Y814750D01*
G01X980400D02*
X974200D01*
Y827250D01*
X980400D01*
G01X977920Y821208D02*
X974200D01*
G01X1000240Y827250D02*
X1003960D01*
G01X1002100D02*
Y814750D01*
G01X1000240D02*
X1003960D01*
G01X1010935D02*
Y827250D01*
X1018065Y814750D01*
Y827250D01*
G01X1035270Y814750D02*
Y827250D01*
X1039300Y816833D01*
X1043330Y827250D01*
Y814750D01*
G01X1049840Y827250D02*
X1053560D01*
G01X1051700D02*
Y814750D01*
G01X1049840D02*
X1053560D01*
G01X1061000Y827250D02*
Y814750D01*
X1067200D01*
G01X1073245Y816416D02*
X1074485Y815375D01*
X1075880Y814750D01*
X1077120D01*
X1078360Y815375D01*
X1079290Y816416D01*
X1079755Y817875D01*
X1079445Y819333D01*
X1078670Y820583D01*
X1077275Y821417D01*
X1075415Y821833D01*
X1074330Y822667D01*
X1073865Y824125D01*
X1074175Y825583D01*
X1074950Y826625D01*
X1076035Y827250D01*
X1077120D01*
X1078205Y826833D01*
X1079135Y825792D01*
G01X878410Y739750D02*
Y752250D01*
X872675Y743292D01*
X880425D01*
G01X890810Y739750D02*
Y752250D01*
X885075Y743292D01*
X892825D01*
G01X901350Y739333D02*
X901040Y739542D01*
Y739958D01*
X901350Y740167D01*
X901660Y739958D01*
Y739542D01*
X901350Y739333D01*
G01X913750Y752250D02*
X912510Y751833D01*
X911580Y750792D01*
X910960Y749542D01*
X910495Y747875D01*
X910340Y746000D01*
X910495Y744125D01*
X910960Y742458D01*
X911580Y741208D01*
X912510Y740167D01*
X913750Y739750D01*
X914990Y740167D01*
X915920Y741208D01*
X916540Y742458D01*
X917005Y744125D01*
X917160Y746000D01*
X917005Y747875D01*
X916540Y749542D01*
X915920Y750792D01*
X914990Y751833D01*
X913750Y752250D01*
G01X876550Y764750D02*
Y777250D01*
X874690Y774750D01*
G01Y764750D02*
X878410D01*
G01X885540Y767250D02*
X886470Y765791D01*
X887710Y764958D01*
X889105Y764750D01*
X890345Y764958D01*
X891585Y766000D01*
X892360Y767250D01*
X892515Y768500D01*
X892205Y769958D01*
X891120Y771000D01*
X890035Y771417D01*
X888640D01*
G01X890035D02*
X890965Y772042D01*
X891740Y773083D01*
X892050Y774333D01*
X891740Y775583D01*
X890965Y776625D01*
X889570Y777250D01*
X888175Y777042D01*
X886780Y776208D01*
G01X901350Y764333D02*
X901040Y764542D01*
Y764958D01*
X901350Y765167D01*
X901660Y764958D01*
Y764542D01*
X901350Y764333D01*
G01X913750Y777250D02*
X912510Y776833D01*
X911580Y775792D01*
X910960Y774542D01*
X910495Y772875D01*
X910340Y771000D01*
X910495Y769125D01*
X910960Y767458D01*
X911580Y766208D01*
X912510Y765167D01*
X913750Y764750D01*
X914990Y765167D01*
X915920Y766208D01*
X916540Y767458D01*
X917005Y769125D01*
X917160Y771000D01*
X917005Y772875D01*
X916540Y774542D01*
X915920Y775792D01*
X914990Y776833D01*
X913750Y777250D01*
G01X995900Y808500D02*
Y733500D01*
G01X1025350Y739750D02*
Y752250D01*
X1029070D01*
X1030310Y751625D01*
X1031240Y750167D01*
X1031550Y748500D01*
X1031240Y746833D01*
X1030465Y745583D01*
X1029070Y744958D01*
X1025350D01*
G01X1037750Y752250D02*
Y739750D01*
X1043950D01*
G01X1049375D02*
X1053250Y752250D01*
X1057125Y739750D01*
G01X1055730Y744125D02*
X1050770D01*
G01X1065650Y752250D02*
Y739750D01*
G01X1062085Y752250D02*
X1069215D01*
G01X1081150Y739750D02*
X1074950D01*
Y752250D01*
X1081150D01*
G01X1078670Y746208D02*
X1074950D01*
G01X1087040Y739750D02*
Y752250D01*
X1090140D01*
X1091380Y751625D01*
X1092310Y750792D01*
X1093085Y749542D01*
X1093705Y748083D01*
X1093860Y746000D01*
X1093705Y743917D01*
X1093085Y742458D01*
X1092310Y741208D01*
X1091380Y740375D01*
X1090140Y739750D01*
X1087040D01*
G01X1025350Y764750D02*
Y777250D01*
X1029070D01*
X1030310Y776625D01*
X1031240Y775167D01*
X1031550Y773500D01*
X1031240Y771833D01*
X1030465Y770583D01*
X1029070Y769958D01*
X1025350D01*
G01X1037750Y777250D02*
Y764750D01*
X1043950D01*
G01X1049375D02*
X1053250Y777250D01*
X1057125Y764750D01*
G01X1055730Y769125D02*
X1050770D01*
G01X1065650Y777250D02*
Y764750D01*
G01X1062085Y777250D02*
X1069215D01*
G01X1081150Y764750D02*
X1074950D01*
Y777250D01*
X1081150D01*
G01X1078670Y771208D02*
X1074950D01*
G01X1087040Y764750D02*
Y777250D01*
X1090140D01*
X1091380Y776625D01*
X1092310Y775792D01*
X1093085Y774542D01*
X1093705Y773083D01*
X1093860Y771000D01*
X1093705Y768917D01*
X1093085Y767458D01*
X1092310Y766208D01*
X1091380Y765375D01*
X1090140Y764750D01*
X1087040D01*
G01X1025350Y789750D02*
Y802250D01*
X1029070D01*
X1030310Y801625D01*
X1031240Y800167D01*
X1031550Y798500D01*
X1031240Y796833D01*
X1030465Y795583D01*
X1029070Y794958D01*
X1025350D01*
G01X1037750Y802250D02*
Y789750D01*
X1043950D01*
G01X1049375D02*
X1053250Y802250D01*
X1057125Y789750D01*
G01X1055730Y794125D02*
X1050770D01*
G01X1065650Y802250D02*
Y789750D01*
G01X1062085Y802250D02*
X1069215D01*
G01X1081150Y789750D02*
X1074950D01*
Y802250D01*
X1081150D01*
G01X1078670Y796208D02*
X1074950D01*
G01X1087040Y789750D02*
Y802250D01*
X1090140D01*
X1091380Y801625D01*
X1092310Y800792D01*
X1093085Y799542D01*
X1093705Y798083D01*
X1093860Y796000D01*
X1093705Y793917D01*
X1093085Y792458D01*
X1092310Y791208D01*
X1091380Y790375D01*
X1090140Y789750D01*
X1087040D01*
G01X1123000Y808500D02*
Y733500D01*
G01X1149350Y739750D02*
Y752250D01*
X1147490Y749750D01*
G01Y739750D02*
X1151210D01*
G01X1158340Y741625D02*
X1159270Y740583D01*
X1160355Y739958D01*
X1161750Y739750D01*
X1163145Y740167D01*
X1164230Y741000D01*
X1165005Y742458D01*
X1165160Y744125D01*
X1164850Y745792D01*
X1164075Y746833D01*
X1162990Y747667D01*
X1161905Y747875D01*
X1160820Y747667D01*
X1159425Y746833D01*
X1159890Y752250D01*
X1164075D01*
G01X1170740Y741625D02*
X1171670Y740583D01*
X1172755Y739958D01*
X1174150Y739750D01*
X1175545Y740167D01*
X1176630Y741000D01*
X1177405Y742458D01*
X1177560Y744125D01*
X1177250Y745792D01*
X1176475Y746833D01*
X1175390Y747667D01*
X1174305Y747875D01*
X1173220Y747667D01*
X1171825Y746833D01*
X1172290Y752250D01*
X1176475D01*
G01X1155550Y764750D02*
Y777250D01*
X1153690Y774750D01*
G01Y764750D02*
X1157410D01*
G01X1167950Y777250D02*
X1166710Y776833D01*
X1165780Y775792D01*
X1165160Y774542D01*
X1164695Y772875D01*
X1164540Y771000D01*
X1164695Y769125D01*
X1165160Y767458D01*
X1165780Y766208D01*
X1166710Y765167D01*
X1167950Y764750D01*
X1169190Y765167D01*
X1170120Y766208D01*
X1170740Y767458D01*
X1171205Y769125D01*
X1171360Y771000D01*
X1171205Y772875D01*
X1170740Y774542D01*
X1170120Y775792D01*
X1169190Y776833D01*
X1167950Y777250D01*
G01X1149350Y789750D02*
X1148110Y789958D01*
X1147025Y790791D01*
X1146095Y792042D01*
X1145475Y793500D01*
X1145165Y795167D01*
Y796833D01*
X1145475Y798500D01*
X1146095Y799958D01*
X1147025Y801208D01*
X1148110Y802042D01*
X1149350Y802250D01*
X1150590Y802042D01*
X1151675Y801208D01*
X1152605Y799958D01*
X1153225Y798500D01*
X1153535Y796833D01*
Y795167D01*
X1153225Y793500D01*
X1152605Y792042D01*
X1151675Y790791D01*
X1150590Y789958D01*
X1149350Y789750D01*
G01X1150590Y793083D02*
X1152450Y789750D01*
G01X1161750Y802250D02*
Y789750D01*
G01X1158185Y802250D02*
X1165315D01*
G01X1174150Y789750D02*
Y795375D01*
X1171050Y802250D01*
G01X1177250D02*
X1174150Y795375D01*
M02*
